# xmcd
# 
# Track frame offsets:
#     150
#     11345
#     16881
#     31992
#     37457
#     50039
#     65594
#     78698
#     93009
#     97792
#     111685
#     122807
#     136661
#     147914
#     160291
#     167584
#     186229
#     199454
#     214578
#     229970
# 
# Disc length: 3218
# 
# Revision: 3
# Processed by: cddbd v1.5.2PL0 Copyright (c) Steve Scherf et al.
# Submitted via: fre:ac v1.0.31
# 
DISCID=1d0c9014
DTITLE=Various Artist - Country Gold (4 CD-Box) CD 4
DYEAR=2002
DGENRE=Country
TTITLE0=Frankie Laine - Love Is A Golden Ring
TTITLE1=Bob Wills - Done Gone
TTITLE2=Conway Twitty - Play Guitar Play
TTITLE3=Danny Davis And The Nashville Brass - Mountain Music (Live)
TTITLE4=Freddy Fender - Enter My Heart
TTITLE5=Tanya Tucker - You Are So Beautiful To Me (Live)
TTITLE6=Don Williams - Where Are You
TTITLE7=Eddie Raven - San Antonio Nights (Live)
TTITLE8=Tammy Wynette - Your Good Girls Gonna Go Bad (Live)
TTITLE9=Tex Ritter - The Cattle Call
TTITLE10=Tammy Wynette - D.I.V.O.R.C.E. (Live)
TTITLE11=Anne Murray - A Little Good News
TTITLE12=Porter Wagoner - Angel Band
TTITLE13=Kitty Wells - As Long As I Live
TTITLE14=Jim Reeves - The Oklahoma Hills
TTITLE15=Jeff Turner - One Good Reason
TTITLE16=Jennifer Wheatherly - No One Has To Tell You
TTITLE17=Gene Watson - Carmen (Live)
TTITLE18=Bonnie Taylor - You've Got To Hide Your Love Away
TTITLE19=Dolly Parton - Making Believe
EXTD=204882-203\nTIM The International Music Company AG, Hamburg, Germany
EXTT0=
EXTT1=
EXTT2=
EXTT3=
EXTT4=
EXTT5=
EXTT6=
EXTT7=
EXTT8=
EXTT9=
EXTT10=
EXTT11=
EXTT12=
EXTT13=
EXTT14=
EXTT15=
EXTT16=
EXTT17=
EXTT18=
EXTT19=
PLAYORDER=
